<svg width="58" height="58" viewBox="0 0 58 58" fill="none" xmlns="http://www.w3.org/2000/svg">
<g clip-path="url(#clip0_212_141)">
<path d="M27.1043 43.941L24.0434 42.0935V58H33.9566V41.2418L32.7913 40.6235L27.1043 43.941Z" fill="#66459F"/>
<path d="M35.8523 58H45.7646V47.5073L35.8523 42.248V58Z" fill="#66459F"/>
<path d="M47.6602 48.5135V58H56.0129V52.9453L47.6602 48.5135Z" fill="#66459F"/>
<path d="M12.2354 58H22.1477V40.9484L12.2354 34.9634V58Z" fill="#66459F"/>
<path d="M1.98706 58H10.3397V33.8185L1.98706 28.7758V58Z" fill="#66459F"/>
<path d="M25.8649 8.78087C28.2844 8.55589 30.0644 6.41125 29.8385 3.99179C29.6145 1.57403 27.4708 -0.205057 25.0504 0.0190135C22.6327 0.243084 20.8528 2.38682 21.0777 4.80719C21.3017 7.22585 23.4446 9.00482 25.8649 8.78087Z" fill="#66459F"/>
<path d="M40.7811 35.2189L38.68 28.3038C38.5939 28.4538 38.5069 28.6037 38.4079 28.7462C37.4461 30.1292 35.9337 31.0122 34.2566 31.1668L33.4836 31.2195L35.6866 36.5621C36.154 37.3359 36.7315 38.0376 37.4017 38.6457L43.1304 43.8475C43.9384 44.5501 45.1602 44.4835 45.8886 43.6967L45.9405 43.643C46.6662 42.8581 46.6403 41.64 45.8841 40.8865L40.7811 35.2189Z" fill="#66459F"/>
<path d="M26.2047 13.9716L27.6708 14.5603L28.1059 12.9571L27.2005 11.4161L25.4725 12.7231L26.2047 13.9716Z" fill="#66459F"/>
<path d="M25.6011 39.7165L25.6789 39.6979C26.7175 39.4405 27.3755 38.4207 27.1802 37.371L25.9186 30.6011L34.2398 30.0235C35.4339 29.9401 36.528 29.32 37.2111 28.3369C37.8951 27.3521 38.0941 26.1118 37.7563 24.9623L37.4434 23.9024L34.8416 14.4251L39.302 14.6657L42.8674 18.1006C42.6952 18.3108 42.6091 18.5857 42.6786 18.8707L42.9702 20.0509L40.8968 20.5628C40.4063 20.6822 40.1072 21.1784 40.2285 21.6689L41.6243 27.3327C41.7464 27.8242 42.2417 28.1232 42.7314 28.0038L51.5283 25.8342C52.0199 25.712 52.3188 25.2158 52.1976 24.7244L50.8009 19.0616C50.6806 18.572 50.1844 18.2711 49.6939 18.3905L47.6205 18.9023L47.3298 17.724C47.2113 17.2455 46.7273 16.953 46.2477 17.0706L46.0311 17.1243C45.9821 16.9234 45.8932 16.729 45.76 16.555L42.2722 11.9816C41.8965 11.4892 41.3606 11.1422 40.758 11.0023L35.0219 8.94932C33.0809 8.25513 30.9381 8.54671 29.2462 9.69901L28.7491 16.7577L24.1802 13.5588L20.9916 16.0053L15.8313 14.1429C15.0223 13.7847 14.0772 14.1291 13.6904 14.9232L13.6367 15.0324C13.446 15.4267 13.4182 15.8793 13.5626 16.2912C13.706 16.7049 14.0097 17.0428 14.4057 17.2335L20.6258 20.2028C21.3996 20.573 22.3002 20.5694 23.0713 20.1935L26.3877 17.9878L28.6629 24.5114L23.1583 24.9937C22.2319 25.0778 21.3885 25.5712 20.8637 26.3395C20.3399 27.1076 20.187 28.0712 20.4462 28.9663L23.1823 38.3231C23.4861 39.3619 24.5515 39.9747 25.6011 39.7165ZM46.4541 17.9054L46.4958 17.9295L46.7865 19.1087L43.8052 19.8445L43.5229 18.7015C44.0764 19.1551 44.8668 19.1893 45.4417 18.745L45.4751 18.7199C45.7157 18.5338 45.8842 18.2895 45.9804 18.023L46.4541 17.9054ZM31.1715 22.4383C31.1992 22.7392 30.9798 23.002 30.68 23.0315C30.381 23.0575 30.1163 22.839 30.0867 22.5391C30.0597 22.2382 30.2793 21.9736 30.58 21.9468C30.878 21.9189 31.1437 22.1374 31.1715 22.4383ZM29.7201 18.9644C30.0182 18.9366 30.2838 19.1552 30.3117 19.455C30.3394 19.7559 30.1191 20.0215 29.8201 20.0484C29.5212 20.0752 29.2556 19.8567 29.2287 19.5569C29.1999 19.2569 29.4202 18.9922 29.7201 18.9644Z" fill="#66459F"/>
</g>
<defs>
<clipPath id="clip0_212_141">
<rect width="58" height="58" fill="white"/>
</clipPath>
</defs>
</svg>
