<svg width="104" height="104" viewBox="0 0 104 104" fill="none" xmlns="http://www.w3.org/2000/svg">
<path d="M81.25 52H24.375C22.2201 52 20.1535 52.856 18.6297 54.3798C17.106 55.9035 16.25 57.9701 16.25 60.125C16.25 62.2799 17.106 64.3465 18.6297 65.8702C20.1535 67.394 22.2201 68.25 24.375 68.25H37.375V60.125L42.25 65L47.125 60.125V68.25H81.25C79.0951 68.25 77.0285 67.394 75.5047 65.8702C73.981 64.3465 73.125 62.2799 73.125 60.125C73.125 57.9701 73.981 55.9035 75.5047 54.3798C77.0285 52.856 79.0951 52 81.25 52Z" fill="#66459F"/>
<path d="M24.375 68.25V52C22.2201 52 20.1535 52.856 18.6297 54.3798C17.106 55.9035 16.25 57.9701 16.25 60.125C16.25 62.2799 17.106 64.3465 18.6297 65.8702C20.1535 67.394 22.2201 68.25 24.375 68.25ZM81.25 19.5H24.375C22.2201 19.5 20.1535 20.356 18.6297 21.8798C17.106 23.4035 16.25 25.4701 16.25 27.625C16.25 29.7799 17.106 31.8465 18.6297 33.3702C20.1535 34.894 22.2201 35.75 24.375 35.75H37.375V27.625L42.25 32.5L47.125 27.625V35.75H81.25C79.0951 35.75 77.0285 34.894 75.5047 33.3702C73.981 31.8465 73.125 29.7799 73.125 27.625C73.125 25.4701 73.981 23.4035 75.5047 21.8798C77.0285 20.356 79.0951 19.5 81.25 19.5Z" fill="#66459F"/>
<path d="M24.375 35.75V19.5C22.2201 19.5 20.1535 20.356 18.6297 21.8798C17.106 23.4035 16.25 25.4701 16.25 27.625C16.25 29.7799 17.106 31.8465 18.6297 33.3702C20.1535 34.894 22.2201 35.75 24.375 35.75Z" fill="#66459F"/>
<path d="M12.3987 93.6686L15.7389 95.1001C15.8906 95.1651 16.0198 95.2731 16.1107 95.4108C16.2015 95.5485 16.2499 95.7099 16.2499 95.8749C16.2499 96.0399 16.2015 96.2012 16.1107 96.339C16.0198 96.4767 15.8906 96.5847 15.7389 96.6497L12.3987 98.0812C12.2 98.1664 12.0415 98.3249 11.9562 98.5236L10.5248 101.864C10.4598 102.016 10.3518 102.145 10.2141 102.236C10.0763 102.327 9.91497 102.375 9.74999 102.375C9.585 102.375 9.42364 102.327 9.28592 102.236C9.14819 102.145 9.04015 102.016 8.97519 101.864L7.54372 98.5236C7.45843 98.3248 7.29995 98.1663 7.10107 98.081L3.76089 96.6495C3.60923 96.5846 3.47997 96.4765 3.38913 96.3388C3.2983 96.2011 3.24988 96.0397 3.24988 95.8747C3.24988 95.7097 3.2983 95.5484 3.38913 95.4107C3.47997 95.2729 3.60923 95.1649 3.76089 95.0999L7.10124 93.6686C7.30011 93.5833 7.45859 93.4249 7.54389 93.226L8.97535 89.8858C9.04031 89.7341 9.14835 89.6049 9.28608 89.514C9.42381 89.4232 9.58516 89.3748 9.75015 89.3748C9.91513 89.3748 10.0765 89.4232 10.2142 89.514C10.3519 89.6049 10.46 89.7341 10.5249 89.8858L11.9562 93.2261C12.0415 93.4249 12.2 93.5833 12.3987 93.6686ZM80.9495 96.3968L82.6195 97.1118C82.6953 97.1444 82.7599 97.1984 82.8053 97.2672C82.8507 97.3361 82.8749 97.4168 82.8749 97.4992C82.8749 97.5817 82.8507 97.6624 82.8053 97.7312C82.7599 97.8001 82.6953 97.8541 82.6195 97.8866L80.9495 98.6016C80.85 98.6444 80.7708 98.7236 80.728 98.8231L80.013 100.493C79.9805 100.569 79.9265 100.634 79.8576 100.679C79.7888 100.724 79.7081 100.749 79.6256 100.749C79.5432 100.749 79.4625 100.724 79.3936 100.679C79.3248 100.634 79.2707 100.569 79.2382 100.493L78.5232 98.8231C78.4805 98.7236 78.4012 98.6444 78.3017 98.6016L76.6317 97.8866C76.5559 97.8541 76.4913 97.8001 76.4459 97.7312C76.4006 97.6624 76.3764 97.5817 76.3764 97.4992C76.3764 97.4168 76.4006 97.3361 76.4459 97.2672C76.4913 97.1984 76.5559 97.1444 76.6317 97.1118L78.3017 96.3968C78.4012 96.3541 78.4805 96.2748 78.5232 96.1754L79.2382 94.5053C79.2707 94.4295 79.3248 94.3649 79.3936 94.3196C79.4625 94.2742 79.5432 94.25 79.6256 94.25C79.7081 94.25 79.7888 94.2742 79.8576 94.3196C79.9265 94.3649 79.9805 94.4295 80.013 94.5053L80.728 96.1754C80.7708 96.2748 80.85 96.3541 80.9495 96.3968Z" fill="#66459F"/>
<path d="M30.5745 91.5219L32.2445 92.2369C32.3203 92.2694 32.3849 92.3234 32.4303 92.3923C32.4757 92.4611 32.4999 92.5418 32.4999 92.6243C32.4999 92.7067 32.4757 92.7874 32.4303 92.8563C32.3849 92.9251 32.3203 92.9791 32.2445 93.0117L30.5745 93.7267C30.475 93.7694 30.3958 93.8487 30.353 93.9481L29.638 95.6182C29.6055 95.694 29.5515 95.7586 29.4826 95.8039C29.4138 95.8493 29.3331 95.8735 29.2506 95.8735C29.1682 95.8735 29.0875 95.8493 29.0186 95.8039C28.9498 95.7586 28.8957 95.694 28.8632 95.6182L28.1482 93.9481C28.1055 93.8487 28.0262 93.7694 27.9267 93.7267L26.2567 93.0117C26.1809 92.9791 26.1163 92.9251 26.0709 92.8563C26.0256 92.7874 26.0014 92.7067 26.0014 92.6243C26.0014 92.5418 26.0256 92.4611 26.0709 92.3923C26.1163 92.3234 26.1809 92.2694 26.2567 92.2369L27.9267 91.5219C28.0262 91.4791 28.1055 91.3998 28.1482 91.3004L28.8632 89.6304C28.8957 89.5546 28.9498 89.49 29.0186 89.4446C29.0875 89.3992 29.1682 89.375 29.2506 89.375C29.3331 89.375 29.4138 89.3992 29.4826 89.4446C29.5515 89.49 29.6055 89.5546 29.638 89.6304L30.353 91.3004C30.3958 91.3998 30.475 91.4791 30.5745 91.5219Z" fill="#66459F"/>
<path d="M10.8917 66.5951L13.3968 67.6688C13.5105 67.7175 13.6074 67.7986 13.6755 67.9019C13.7436 68.0051 13.7799 68.1261 13.7799 68.2499C13.7799 68.3736 13.7436 68.4946 13.6755 68.5979C13.6074 68.7012 13.5105 68.7822 13.3968 68.831L10.8917 69.9046C10.7425 69.9685 10.6236 70.0874 10.5597 70.2366L9.48608 72.7417C9.43732 72.8554 9.35628 72.9523 9.25298 73.0204C9.14969 73.0885 9.0287 73.1248 8.90498 73.1248C8.78127 73.1248 8.66027 73.0885 8.55698 73.0204C8.45369 72.9523 8.37265 72.8554 8.32388 72.7417L7.25041 70.2366C7.1864 70.0874 7.06748 69.9685 6.91826 69.9046L4.41316 68.831C4.29946 68.7822 4.20256 68.7012 4.13447 68.5979C4.06638 68.4946 4.03009 68.3736 4.03009 68.2499C4.03009 68.1261 4.06638 68.0051 4.13447 67.9019C4.20256 67.7986 4.29946 67.7175 4.41316 67.6688L6.91826 66.5951C7.06748 66.5312 7.1864 66.4123 7.25041 66.2631L8.32388 63.758C8.37265 63.6443 8.45369 63.5474 8.55698 63.4794C8.66027 63.4113 8.78127 63.375 8.90498 63.375C9.0287 63.375 9.14969 63.4113 9.25298 63.4794C9.35628 63.5474 9.43732 63.6443 9.48608 63.758L10.5597 66.2631C10.6236 66.4123 10.7425 66.5312 10.8917 66.5951Z" fill="#66459F"/>
<path d="M97.8617 89.3451L100.367 90.4188C100.481 90.4675 100.577 90.5486 100.645 90.6519C100.714 90.7552 100.75 90.8761 100.75 90.9999C100.75 91.1236 100.714 91.2446 100.645 91.3479C100.577 91.4512 100.481 91.5322 100.367 91.581L97.8617 92.6546C97.7125 92.7185 97.5936 92.8374 97.5297 92.9866L96.4561 95.4917C96.4073 95.6054 96.3263 95.7023 96.223 95.7704C96.1197 95.8385 95.9987 95.8748 95.875 95.8748C95.7513 95.8748 95.6303 95.8385 95.527 95.7704C95.4237 95.7023 95.3426 95.6054 95.2939 95.4917L94.2203 92.9866C94.1564 92.8374 94.0375 92.7185 93.8883 92.6546L91.3832 91.581C91.2695 91.5322 91.1726 91.4512 91.1045 91.3479C91.0364 91.2446 91.0001 91.1236 91.0001 90.9999C91.0001 90.8761 91.0364 90.7552 91.1045 90.6519C91.1726 90.5486 91.2695 90.4675 91.3832 90.4188L93.8883 89.3451C94.0375 89.2812 94.1564 89.1623 94.2203 89.0131L95.2939 86.508C95.3426 86.3943 95.4237 86.2974 95.527 86.2294C95.6303 86.1613 95.7513 86.125 95.875 86.125C95.9987 86.125 96.1197 86.1613 96.223 86.2294C96.3263 86.2974 96.4073 86.3943 96.4561 86.508L97.5297 89.0131C97.5936 89.1623 97.7125 89.2812 97.8617 89.3451Z" fill="#66459F"/>
<path d="M46.3125 95.875C47.6587 95.875 48.75 96.9663 48.75 98.3125C48.75 99.6587 47.6587 100.75 46.3125 100.75C44.9663 100.75 43.875 99.6587 43.875 98.3125C43.875 96.9663 44.9663 95.875 46.3125 95.875Z" fill="#66459F"/>
<path d="M96.6875 68.25C98.0337 68.25 99.125 69.3413 99.125 70.6875C99.125 72.0337 98.0337 73.125 96.6875 73.125C95.3413 73.125 94.25 72.0337 94.25 70.6875C94.25 69.3413 95.3413 68.25 96.6875 68.25Z" fill="#66459F"/>
<path d="M65.8125 89.375C67.1587 89.375 68.25 90.4663 68.25 91.8125C68.25 93.1587 67.1587 94.25 65.8125 94.25C64.4663 94.25 63.375 93.1587 63.375 91.8125C63.375 90.4663 64.4663 89.375 65.8125 89.375Z" fill="#66459F"/>
<path d="M81.25 66.625H86.125C86.556 66.625 86.9693 66.7962 87.274 67.1009C87.5788 67.4057 87.75 67.819 87.75 68.25C87.75 68.681 87.5788 69.0943 87.274 69.399C86.9693 69.7038 86.556 69.875 86.125 69.875C84.4011 69.875 82.7478 70.5598 81.5288 71.7788C80.3098 72.9978 79.625 74.6511 79.625 76.375C79.625 78.0989 80.3098 79.7522 81.5288 80.9712C82.7478 82.1902 84.4011 82.875 86.125 82.875C86.556 82.875 86.9693 83.0462 87.274 83.3509C87.5788 83.6557 87.75 84.069 87.75 84.5C87.75 84.931 87.5788 85.3443 87.274 85.649C86.9693 85.9538 86.556 86.125 86.125 86.125H29.25C27.3382 86.1274 25.468 85.5669 23.8725 84.5136C22.2771 83.4602 21.027 81.9605 20.2781 80.2015C19.5293 78.4424 19.3147 76.5019 19.6613 74.6217C20.0079 72.7416 20.9002 71.0051 22.2271 69.6286C20.0693 69.1428 18.1411 67.9372 16.7595 66.21C15.3779 64.4827 14.6252 62.3368 14.6252 60.125C14.6252 57.9132 15.3779 55.7672 16.7595 54.04C18.1411 52.3128 20.0693 51.1072 22.2271 50.6213C20.4778 48.8112 19.5 46.3923 19.5 43.875C19.5 41.3577 20.4778 38.9388 22.2271 37.1286C20.0693 36.6428 18.1411 35.4372 16.7595 33.71C15.3779 31.9827 14.6252 29.8368 14.6252 27.625C14.6252 25.4132 15.3779 23.2673 16.7595 21.54C18.1411 19.8128 20.0693 18.6072 22.2271 18.1213C20.9002 16.7449 20.0079 15.0084 19.6613 13.1283C19.3147 11.2481 19.5293 9.30757 20.2781 7.54854C21.027 5.7895 22.2771 4.2898 23.8725 3.23643C25.468 2.18307 27.3382 1.62263 29.25 1.62499H86.125C86.556 1.62499 86.9693 1.7962 87.274 2.10094C87.5788 2.40569 87.75 2.81902 87.75 3.24999C87.75 3.68097 87.5788 4.0943 87.274 4.39904C86.9693 4.70379 86.556 4.87499 86.125 4.87499C84.4011 4.87499 82.7478 5.55981 81.5288 6.7788C80.3098 7.99779 79.625 9.65108 79.625 11.375C79.625 13.0989 80.3098 14.7522 81.5288 15.9712C82.7478 17.1902 84.4011 17.875 86.125 17.875C86.556 17.875 86.9693 18.0462 87.274 18.3509C87.5788 18.6557 87.75 19.069 87.75 19.5C87.75 19.931 87.5788 20.3443 87.274 20.649C86.9693 20.9538 86.556 21.125 86.125 21.125H81.25C79.5261 21.125 77.8728 21.8098 76.6538 23.0288C75.4348 24.2478 74.75 25.9011 74.75 27.625C74.75 29.3489 75.4348 31.0022 76.6538 32.2212C77.8728 33.4402 79.5261 34.125 81.25 34.125H86.125C86.556 34.125 86.9693 34.2962 87.274 34.6009C87.5788 34.9057 87.75 35.319 87.75 35.75C87.75 36.181 87.5788 36.5943 87.274 36.899C86.9693 37.2038 86.556 37.375 86.125 37.375C84.4011 37.375 82.7478 38.0598 81.5288 39.2788C80.3098 40.4978 79.625 42.1511 79.625 43.875C79.625 45.5989 80.3098 47.2522 81.5288 48.4712C82.7478 49.6902 84.4011 50.375 86.125 50.375C86.556 50.375 86.9693 50.5462 87.274 50.8509C87.5788 51.1557 87.75 51.569 87.75 52C87.75 52.431 87.5788 52.8443 87.274 53.149C86.9693 53.4538 86.556 53.625 86.125 53.625H81.25C79.5261 53.625 77.8728 54.3098 76.6538 55.5288C75.4348 56.7478 74.75 58.4011 74.75 60.125C74.75 61.8489 75.4348 63.5022 76.6538 64.7212C77.8728 65.9402 79.5261 66.625 81.25 66.625ZM35.75 66.625V60.125C35.7501 59.8036 35.8454 59.4895 36.024 59.2224C36.2025 58.9552 36.4563 58.747 36.7532 58.624C37.0501 58.5011 37.3767 58.4689 37.6919 58.5315C38.0071 58.5942 38.2966 58.7489 38.5239 58.9761L42.25 62.7021L45.9761 58.9761C46.2034 58.7489 46.4929 58.5942 46.8081 58.5315C47.1232 58.4689 47.4499 58.5011 47.7468 58.624C48.0437 58.747 48.2975 58.9552 48.476 59.2224C48.6546 59.4895 48.7499 59.8036 48.75 60.125V66.625H73.9882C72.7647 65.2533 71.9549 63.563 71.6526 61.75H58.5C58.069 61.75 57.6557 61.5788 57.3509 61.274C57.0462 60.9693 56.875 60.556 56.875 60.125C56.875 59.694 57.0462 59.2807 57.3509 58.9759C57.6557 58.6712 58.069 58.5 58.5 58.5H71.6526C71.9549 56.687 72.7647 54.9967 73.9882 53.625H26V66.625H35.75ZM39 64.0479V74.75H45.5V64.0479L43.3989 66.1489C43.248 66.2998 43.0689 66.4195 42.8718 66.5012C42.6747 66.5829 42.4634 66.625 42.25 66.625C42.0366 66.625 41.8253 66.5829 41.6282 66.5012C41.4311 66.4195 41.2519 66.2998 41.1011 66.1489L39 64.0479ZM27.625 50.1442V37.6057C26.2311 37.9601 24.995 38.7688 24.1122 39.9042C23.2293 41.0396 22.75 42.4368 22.75 43.875C22.75 45.3132 23.2293 46.7104 24.1122 47.8458C24.995 48.9812 26.2311 49.7899 27.625 50.1442ZM27.625 82.6442V70.1057C26.2311 70.4601 24.995 71.2688 24.1122 72.4042C23.2293 73.5396 22.75 74.9368 22.75 76.375C22.75 77.8132 23.2293 79.2104 24.1122 80.3458C24.995 81.4811 26.2311 82.2899 27.625 82.6442ZM17.875 60.125C17.8791 61.5622 18.36 62.9573 19.2422 64.0919C20.1244 65.2264 21.3581 66.0362 22.75 66.3942V53.8557C21.3581 54.2138 20.1244 55.0236 19.2422 56.1581C18.36 57.2926 17.8791 58.6878 17.875 60.125ZM17.875 27.625C17.8791 29.0622 18.36 30.4573 19.2422 31.5919C20.1244 32.7264 21.3581 33.5362 22.75 33.8942V21.3557C21.3581 21.7138 20.1244 22.5236 19.2422 23.6581C18.36 24.7926 17.8791 26.1878 17.875 27.625ZM27.625 5.10574C26.2311 5.46008 24.995 6.26884 24.1122 7.4042C23.2293 8.53957 22.75 9.93677 22.75 11.375C22.75 12.8132 23.2293 14.2104 24.1122 15.3458C24.995 16.4811 26.2311 17.2899 27.625 17.6442V5.10574ZM26 21.125V34.125H35.75V27.625C35.7501 27.3036 35.8454 26.9895 36.024 26.7224C36.2025 26.4552 36.4563 26.247 36.7532 26.124C37.0501 26.0011 37.3767 25.9689 37.6919 26.0315C38.0071 26.0942 38.2966 26.2489 38.5239 26.4761L42.25 30.2021L45.9761 26.4761C46.2034 26.2489 46.4929 26.0942 46.8081 26.0315C47.1232 25.9689 47.4499 26.0011 47.7468 26.124C48.0437 26.247 48.2975 26.4552 48.476 26.7224C48.6546 26.9895 48.7499 27.3036 48.75 27.625V34.125H73.9882C72.7647 32.7533 71.9549 31.063 71.6526 29.25H58.5C58.069 29.25 57.6557 29.0788 57.3509 28.774C57.0462 28.4693 56.875 28.056 56.875 27.625C56.875 27.194 57.0462 26.7807 57.3509 26.4759C57.6557 26.1712 58.069 26 58.5 26H71.6526C71.9549 24.187 72.7647 22.4967 73.9882 21.125H26ZM39 31.5479V42.25H45.5V31.5479L43.3989 33.6489C43.248 33.7998 43.0689 33.9195 42.8718 34.0012C42.6747 34.0829 42.4634 34.125 42.25 34.125C42.0366 34.125 41.8253 34.0829 41.6282 34.0012C41.4311 33.9195 41.2519 33.7998 41.1011 33.6489L39 31.5479ZM78.8632 17.875C77.6397 16.5033 76.8299 14.813 76.5276 13H63.375C62.944 13 62.5307 12.8288 62.2259 12.524C61.9212 12.2193 61.75 11.806 61.75 11.375C61.75 10.944 61.9212 10.5307 62.2259 10.2259C62.5307 9.9212 62.944 9.74999 63.375 9.74999H76.5276C76.8299 7.93696 77.6397 6.24668 78.8632 4.87499H30.875V17.875H78.8632ZM78.8632 50.375C77.6397 49.0033 76.8299 47.313 76.5276 45.5H63.375C62.944 45.5 62.5307 45.3288 62.2259 45.024C61.9212 44.7193 61.75 44.306 61.75 43.875C61.75 43.444 61.9212 43.0307 62.2259 42.7259C62.5307 42.4212 62.944 42.25 63.375 42.25H76.5276C76.8299 40.437 77.6397 38.7467 78.8632 37.375H48.75V43.875C48.75 44.306 48.5788 44.7193 48.274 45.024C47.9693 45.3288 47.556 45.5 47.125 45.5H37.375C36.944 45.5 36.5307 45.3288 36.2259 45.024C35.9212 44.7193 35.75 44.306 35.75 43.875V37.375H30.875V50.375H78.8632ZM48.75 69.875V76.375C48.75 76.806 48.5788 77.2193 48.274 77.524C47.9693 77.8288 47.556 78 47.125 78H37.375C36.944 78 36.5307 77.8288 36.2259 77.524C35.9212 77.2193 35.75 76.806 35.75 76.375V69.875H30.875V82.875H78.8632C77.6397 81.5033 76.8299 79.813 76.5276 78H63.375C62.944 78 62.5307 77.8288 62.2259 77.524C61.9212 77.2193 61.75 76.806 61.75 76.375C61.75 75.944 61.9212 75.5307 62.2259 75.2259C62.5307 74.9212 62.944 74.75 63.375 74.75H76.5276C76.8299 72.937 77.6397 71.2467 78.8632 69.875H48.75Z" fill="#66459F"/>
</svg>
